<svg viewBox="0 0 640 400" data-background-color="#04638000" preserveAspectRatio="xMidYMid meet" height="400" width="640" xmlns="http://www.w3.org/2000/svg" xmlns:xlink="http://www.w3.org/1999/xlink"><rect width="640" height="400" x="0" y="0" opacity="1" fill="#04638000" data-fill-palette-color="background" id="background"></rect><g id="tight-bounds" transform="matrix(1,0,0,1,122.24000000000001,76.4)"><svg viewBox="0 0 395.52 247.2" height="247.2" width="395.52"><g><svg></svg></g><g><svg viewBox="0 0 395.52 247.2" height="247.2" width="395.52"><g transform="matrix(1,0,0,1,75.54432000000001,93.93957270756721)"><svg viewBox="0 0 244.43135999999996 59.32085458486556" height="59.32085458486556" width="244.43135999999996"><g><svg viewBox="0 0 244.43135999999996 59.32085458486556" height="59.32085458486556" width="244.43135999999996"><g><svg viewBox="0 0 334.987528432167 81.29785990581608" height="59.32085458486556" width="244.43135999999996"><g transform="matrix(1,0,0,1,0,21.040184196560702)"><svg viewBox="0 0 244.43135999999996 39.21749151269468" height="39.21749151269468" width="244.43135999999996"><g><svg viewBox="0 0 244.43135999999996 39.21749151269468" height="39.21749151269468" width="244.43135999999996"><g><svg viewBox="0 0 244.43135999999996 39.21749151269468" height="39.21749151269468" width="244.43135999999996"><g transform="matrix(1,0,0,1,0,0)"><svg width="244.43135999999996" viewBox="2.4000000953674316 -37.099998474121094 234.3300018310547 37.599998474121094" height="39.21749151269468" data-palette-color="#ffffff"><path d="M20.4-3.6L20.4-3.6Q18.35-1.55 16.03-0.53 13.7 0.5 10.9 0.5L10.9 0.5Q6.95 0.5 4.67-1.45 2.4-3.4 2.4-6.75L2.4-6.75Q2.4-9.3 3.78-11.1 5.15-12.9 7.9-13.98 10.65-15.05 14.75-15.4L14.75-15.4 20-15.85Q20.4-15.9 20.63-16.07 20.85-16.25 20.85-16.6L20.85-16.6 20.85-18.15Q20.85-21.35 18.82-23.23 16.8-25.1 13.4-25.1L13.4-25.1Q10.8-25.1 8.75-23.93 6.7-22.75 5-20.5L5-20.5Q4.85-20.3 4.75-20.25 4.65-20.2 4.5-20.3L4.5-20.3 3.3-21.05Q3.2-21.15 3.18-21.25 3.15-21.35 3.3-21.55L3.3-21.55Q4.9-23.9 7.43-25.45 9.95-27 13.5-27L13.5-27Q16.35-27 18.45-25.98 20.55-24.95 21.7-23 22.85-21.05 22.85-18.35L22.85-18.35 22.85-0.5Q22.85-0.2 22.73-0.1 22.6 0 22.35 0L22.35 0 21.45 0Q21.25 0 21.13-0.1 21-0.2 21-0.45L21-0.45 20.9-3.5Q20.8-4.1 20.4-3.6L20.4-3.6ZM20.85-13.3L20.85-13.3Q20.85-14.1 20.15-14L20.15-14 15.7-13.65Q12.75-13.45 10.63-12.9 8.5-12.35 7.15-11.5 5.8-10.65 5.15-9.5 4.5-8.35 4.5-6.9L4.5-6.9Q4.5-4.3 6.33-2.85 8.15-1.4 11.2-1.4L11.2-1.4Q13.05-1.4 14.83-2.08 16.6-2.75 18-3.85L18-3.85Q19.4-5 20.13-6.23 20.85-7.45 20.85-8.55L20.85-8.55 20.85-13.3ZM41.7-27L41.7-27Q43.95-27 45.72-26.35 47.5-25.7 48.92-24.5 50.35-23.3 51.5-21.65L51.5-21.65Q51.75-21.3 51.5-21.15L51.5-21.15 50.3-20.35Q50.05-20.2 49.75-20.55L49.75-20.55Q48.4-22.25 47.12-23.23 45.85-24.2 44.6-24.65 43.35-25.1 41.95-25.1L41.95-25.1Q38.9-25.1 36.6-23.63 34.3-22.15 33.05-19.48 31.8-16.8 31.8-13.25L31.8-13.25Q31.8-9.7 33.05-7.03 34.3-4.35 36.57-2.88 38.85-1.4 41.9-1.4L41.9-1.4Q44.45-1.4 46.5-2.63 48.55-3.85 50.2-6.4L50.2-6.4Q50.35-6.65 50.45-6.68 50.55-6.7 50.7-6.6L50.7-6.6 51.85-5.85Q52.1-5.7 51.95-5.35L51.95-5.35Q51.05-3.9 49.92-2.8 48.8-1.7 47.5-0.98 46.2-0.25 44.75 0.13 43.3 0.5 41.7 0.5L41.7 0.5Q38.15 0.5 35.42-1.23 32.7-2.95 31.2-6.03 29.7-9.1 29.7-13.15L29.7-13.15Q29.7-17.2 31.22-20.33 32.75-23.45 35.47-25.23 38.2-27 41.7-27L41.7-27ZM68.05-27L68.05-27Q70.3-27 72.07-26.35 73.84-25.7 75.27-24.5 76.7-23.3 77.84-21.65L77.84-21.65Q78.09-21.3 77.84-21.15L77.84-21.15 76.65-20.35Q76.4-20.2 76.09-20.55L76.09-20.55Q74.75-22.25 73.47-23.23 72.2-24.2 70.95-24.65 69.7-25.1 68.3-25.1L68.3-25.1Q65.25-25.1 62.95-23.63 60.65-22.15 59.4-19.48 58.15-16.8 58.15-13.25L58.15-13.25Q58.15-9.7 59.4-7.03 60.65-4.35 62.92-2.88 65.2-1.4 68.25-1.4L68.25-1.4Q70.8-1.4 72.84-2.63 74.9-3.85 76.55-6.4L76.55-6.4Q76.7-6.65 76.8-6.68 76.9-6.7 77.05-6.6L77.05-6.6 78.2-5.85Q78.45-5.7 78.3-5.35L78.3-5.35Q77.4-3.9 76.27-2.8 75.15-1.7 73.84-0.98 72.55-0.25 71.09 0.13 69.65 0.5 68.05 0.5L68.05 0.5Q64.5 0.5 61.77-1.23 59.05-2.95 57.55-6.03 56.05-9.1 56.05-13.15L56.05-13.15Q56.05-17.2 57.57-20.33 59.1-23.45 61.82-25.23 64.55-27 68.05-27L68.05-27ZM84.49-12L84.49-12Q84.49-9.2 85.84-6.78 87.19-4.35 89.47-2.88 91.74-1.4 94.54-1.4L94.54-1.4Q97.54-1.4 99.74-2.6 101.94-3.8 103.29-6.05L103.29-6.05Q103.44-6.3 103.57-6.33 103.69-6.35 103.84-6.25L103.84-6.25 104.99-5.5Q105.29-5.3 105.04-5L105.04-5Q103.89-3.2 102.34-1.98 100.79-0.75 98.84-0.13 96.89 0.5 94.54 0.5L94.54 0.5Q90.94 0.5 88.22-1.2 85.49-2.9 83.94-5.98 82.39-9.05 82.39-13.05L82.39-13.05Q82.39-17.45 83.97-20.55 85.54-23.65 88.29-25.33 91.04-27 94.54-27L94.54-27Q98.09-27 100.64-25.43 103.19-23.85 104.59-20.88 105.99-17.9 105.99-13.7L105.99-13.7Q105.99-13.4 105.94-13.05 105.89-12.7 105.34-12.7L105.34-12.7 84.79-12.7Q84.64-12.7 84.57-12.48 84.49-12.25 84.49-12L84.49-12ZM84.54-14.5L103.04-14.5Q103.59-14.5 103.74-14.65 103.89-14.8 103.89-15.2L103.89-15.2Q103.89-17.95 102.74-20.2 101.59-22.45 99.49-23.78 97.39-25.1 94.49-25.1L94.49-25.1Q91.19-25.1 88.97-23.5 86.74-21.9 85.64-19.45 84.54-17 84.54-14.5L84.54-14.5ZM128.64-21.3L128.64-21.3Q127.49-23.05 125.47-24.08 123.44-25.1 120.69-25.1L120.69-25.1Q117.49-25.1 115.39-23.7 113.29-22.3 113.29-19.9L113.29-19.9Q113.29-18.65 114.27-17.48 115.24-16.3 118.14-15.35L118.14-15.35 124.89-13.15Q127.84-12.2 129.26-10.6 130.69-9 130.69-6.85L130.69-6.85Q130.69-4.7 129.37-3.05 128.04-1.4 125.74-0.45 123.44 0.5 120.59 0.5L120.59 0.5Q116.94 0.5 114.06-1.05 111.19-2.6 109.94-5.05L109.94-5.05Q109.89-5.2 109.89-5.33 109.89-5.45 110.04-5.55L110.04-5.55 111.14-6.25Q111.24-6.35 111.39-6.33 111.54-6.3 111.59-6.2L111.59-6.2Q112.49-4.7 113.79-3.63 115.09-2.55 116.79-1.98 118.49-1.4 120.59-1.4L120.59-1.4Q122.84-1.4 124.66-2.05 126.49-2.7 127.54-3.88 128.59-5.05 128.59-6.6L128.59-6.6Q128.59-8.3 127.22-9.5 125.84-10.7 122.69-11.65L122.69-11.65 117.54-13.25Q113.79-14.4 112.49-16.03 111.19-17.65 111.19-19.5L111.19-19.5Q111.19-21.8 112.44-23.48 113.69-25.15 115.86-26.08 118.04-27 120.74-27L120.74-27Q123.84-27 126.34-25.8 128.84-24.6 130.29-22.4L130.29-22.4Q130.39-22.25 130.37-22.18 130.34-22.1 130.24-22L130.24-22 129.09-21.25Q128.99-21.2 128.87-21.2 128.74-21.2 128.64-21.3L128.64-21.3ZM153.69-21.3L153.69-21.3Q152.54-23.05 150.51-24.08 148.49-25.1 145.74-25.1L145.74-25.1Q142.54-25.1 140.44-23.7 138.34-22.3 138.34-19.9L138.34-19.9Q138.34-18.65 139.31-17.48 140.29-16.3 143.19-15.35L143.19-15.35 149.94-13.15Q152.89-12.2 154.31-10.6 155.74-9 155.74-6.85L155.74-6.85Q155.74-4.7 154.41-3.05 153.09-1.4 150.79-0.45 148.49 0.5 145.64 0.5L145.64 0.5Q141.99 0.5 139.11-1.05 136.24-2.6 134.99-5.05L134.99-5.05Q134.94-5.2 134.94-5.33 134.94-5.45 135.09-5.55L135.09-5.55 136.19-6.25Q136.29-6.35 136.44-6.33 136.59-6.3 136.64-6.2L136.64-6.2Q137.54-4.7 138.84-3.63 140.14-2.55 141.84-1.98 143.54-1.4 145.64-1.4L145.64-1.4Q147.89-1.4 149.71-2.05 151.54-2.7 152.59-3.88 153.64-5.05 153.64-6.6L153.64-6.6Q153.64-8.3 152.26-9.5 150.89-10.7 147.74-11.65L147.74-11.65 142.59-13.25Q138.84-14.4 137.54-16.03 136.24-17.65 136.24-19.5L136.24-19.5Q136.24-21.8 137.49-23.48 138.74-25.15 140.91-26.08 143.09-27 145.79-27L145.79-27Q148.89-27 151.39-25.8 153.89-24.6 155.34-22.4L155.34-22.4Q155.44-22.25 155.41-22.18 155.39-22.1 155.29-22L155.29-22 154.14-21.25Q154.04-21.2 153.91-21.2 153.79-21.2 153.69-21.3L153.69-21.3ZM165.09-26L165.09-0.6Q165.09-0.25 164.99-0.13 164.89 0 164.49 0L164.49 0 163.64 0Q163.29 0 163.19-0.1 163.09-0.2 163.09-0.5L163.09-0.5 163.09-26Q163.09-26.5 163.54-26.5L163.54-26.5 164.64-26.5Q165.09-26.5 165.09-26L165.09-26ZM165.34-36.45L165.34-33Q165.34-32.2 164.74-32.2L164.74-32.2 163.39-32.2Q163.04-32.2 162.94-32.4 162.84-32.6 162.84-32.9L162.84-32.9 162.84-36.45Q162.84-37.1 163.44-37.1L163.44-37.1 164.74-37.1Q165.34-37.1 165.34-36.45L165.34-36.45ZM175.28 0L174.73 0Q174.43 0 174.31-0.15 174.18-0.3 174.18-0.65L174.18-0.65 174.18-36.6Q174.18-37.1 174.63-37.1L174.63-37.1 175.78-37.1Q176.18-37.1 176.18-36.55L176.18-36.55 176.18-23.9Q176.18-23.4 176.33-23.38 176.48-23.35 176.83-23.65L176.83-23.65Q177.08-23.9 178.11-24.7 179.13-25.5 180.96-26.25 182.78-27 185.43-27L185.43-27Q189.28-27 191.66-25.15 194.03-23.3 195.16-20.2 196.28-17.1 196.28-13.35L196.28-13.35Q196.28-6.95 193.28-3.23 190.28 0.5 184.88 0.5L184.88 0.5Q182.33 0.5 180.61-0.28 178.88-1.05 177.91-2 176.93-2.95 176.63-3.35L176.63-3.35Q176.43-3.6 176.28-3.58 176.13-3.55 176.13-3.2L176.13-3.2 176.03-0.65Q176.03 0 175.28 0L175.28 0ZM176.18-20.75L176.18-8.85Q176.18-6.85 177.43-5.15 178.68-3.45 180.63-2.43 182.58-1.4 184.68-1.4L184.68-1.4Q187.28-1.4 189.43-2.68 191.58-3.95 192.86-6.6 194.13-9.25 194.13-13.35L194.13-13.35Q194.13-18.7 191.83-21.9 189.53-25.1 185.08-25.1L185.08-25.1Q182.33-25.1 180.01-23.83 177.68-22.55 176.18-20.75L176.18-20.75ZM205.78-36.6L205.78-0.6Q205.78-0.25 205.68-0.13 205.58 0 205.18 0L205.18 0 204.33 0Q203.78 0 203.78-0.5L203.78-0.5 203.78-36.6Q203.78-37.1 204.23-37.1L204.23-37.1 205.33-37.1Q205.78-37.1 205.78-36.6L205.78-36.6ZM215.23-12L215.23-12Q215.23-9.2 216.58-6.78 217.93-4.35 220.2-2.88 222.48-1.4 225.28-1.4L225.28-1.4Q228.28-1.4 230.48-2.6 232.68-3.8 234.03-6.05L234.03-6.05Q234.18-6.3 234.3-6.33 234.43-6.35 234.58-6.25L234.58-6.25 235.73-5.5Q236.03-5.3 235.78-5L235.78-5Q234.63-3.2 233.08-1.98 231.53-0.75 229.58-0.13 227.63 0.5 225.28 0.5L225.28 0.5Q221.68 0.5 218.95-1.2 216.23-2.9 214.68-5.98 213.13-9.05 213.13-13.05L213.13-13.05Q213.13-17.45 214.7-20.55 216.28-23.65 219.03-25.33 221.78-27 225.28-27L225.28-27Q228.83-27 231.38-25.43 233.93-23.85 235.33-20.88 236.73-17.9 236.73-13.7L236.73-13.7Q236.73-13.4 236.68-13.05 236.63-12.7 236.08-12.7L236.08-12.7 215.53-12.7Q215.38-12.7 215.3-12.48 215.23-12.25 215.23-12L215.23-12ZM215.28-14.5L233.78-14.5Q234.33-14.5 234.48-14.65 234.63-14.8 234.63-15.2L234.63-15.2Q234.63-17.95 233.48-20.2 232.33-22.45 230.23-23.78 228.13-25.1 225.23-25.1L225.23-25.1Q221.93-25.1 219.7-23.5 217.48-21.9 216.38-19.45 215.28-17 215.28-14.5L215.28-14.5Z" opacity="1" transform="matrix(1,0,0,1,0,0)" fill="#000000" class="undefined-text-0" data-fill-palette-color="primary" id="text-0"></path></svg></g></svg></g></svg></g></svg></g><g transform="matrix(1,0,0,1,253.68966852635086,0)"><svg viewBox="0 0 81.29785990581608 81.29785990581608" height="81.29785990581608" width="81.29785990581608"><g><svg xmlns="http://www.w3.org/2000/svg" xmlns:xlink="http://www.w3.org/1999/xlink" version="1.1" x="0" y="0" viewBox="12.5 12.5 75 75" enable-background="new 0 0 100 100" xml:space="preserve" height="81.29785990581608" width="81.29785990581608" class="icon-icon-0" data-fill-palette-color="accent" id="icon-0"><g fill="#ffffff" data-fill-palette-color="accent"><path d="M31.088 12.5c-10.25 0-18.588 8.338-18.588 18.588v37.824c0 10.25 8.338 18.588 18.588 18.588h37.824c10.25 0 18.588-8.338 18.588-18.588V31.088c0-10.25-8.338-18.588-18.588-18.588H31.088zM43.419 64.907c-3.046 0-5.851-1.027-8.111-2.738H51.53C49.27 63.88 46.466 64.907 43.419 64.907zM68.932 71.132c-1.513 0-2.745-1.231-2.745-2.745s1.231-2.745 2.745-2.745 2.745 1.231 2.745 2.745S70.445 71.132 68.932 71.132zM82.5 31.088v37.824c0 6.63-4.777 12.158-11.067 13.344V75.71c3.046-1.043 5.244-3.928 5.244-7.323 0-4.271-3.474-7.745-7.745-7.745s-7.745 3.474-7.745 7.745c0 3.395 2.199 6.28 5.245 7.323V82.5H45.92V69.718c5.554-0.757 10.322-3.981 13.169-8.539 0.114-0.149 0.214-0.308 0.293-0.481 1.592-2.73 2.52-5.892 2.52-9.273V39.07c0-4.575-3.137-8.421-7.37-9.529-0.052-1.335-1.143-2.403-2.49-2.403-1.381 0-2.5 1.119-2.5 2.5v4.144c0 1.381 1.119 2.5 2.5 2.5 1.016 0 1.886-0.608 2.277-1.479 1.529 0.82 2.582 2.414 2.582 4.267v12.354c0 2.057-0.476 3.999-1.303 5.745H31.24c-0.827-1.746-1.303-3.689-1.303-5.745V39.07c0-1.852 1.054-3.447 2.583-4.267 0.391 0.87 1.261 1.479 2.277 1.479 1.381 0 2.5-1.119 2.5-2.5v-4.144c0-1.381-1.119-2.5-2.5-2.5-1.348 0-2.438 1.068-2.49 2.403-4.233 1.108-7.37 4.954-7.37 9.529v12.354c0 3.382 0.928 6.544 2.52 9.274 0.078 0.173 0.179 0.332 0.292 0.481 2.848 4.558 7.616 7.783 13.171 8.539V82.5h-9.833c-7.492 0-13.588-6.096-13.588-13.588V31.088c0-7.492 6.096-13.588 13.588-13.588h37.824C76.404 17.5 82.5 23.596 82.5 31.088z" fill="#000000" data-fill-palette-color="accent"></path><path d="M74.18 29.29c0.66 0 1.3-0.26 1.76-0.73 0.47-0.46 0.74-1.11 0.74-1.77 0-0.65-0.27-1.3-0.74-1.76-0.93-0.93-2.6-0.93-3.53 0-0.47 0.46-0.73 1.11-0.73 1.76 0 0.66 0.26 1.31 0.73 1.77C72.87 29.03 73.52 29.29 74.18 29.29z" fill="#000000" data-fill-palette-color="accent"></path></g></svg></g></svg></g></svg></g></svg></g></svg></g><path d="M194.263 87.94L194.263 23.556 394.35 23.556 394.35 223.644 194.263 223.644 194.263 159.26 196.843 159.26 196.843 221.063 391.769 221.063 391.769 26.137 196.843 26.137 196.843 87.94Z" fill="#000000" stroke="transparent" data-fill-palette-color="primary"></path></svg></g><defs></defs></svg><rect width="395.52" height="247.2" fill="none" stroke="none" visibility="hidden"></rect></g></svg>
