<svg viewBox="0 0 640 400" data-background-color="#04638000" preserveAspectRatio="xMidYMid meet" height="400" width="640" xmlns="http://www.w3.org/2000/svg" xmlns:xlink="http://www.w3.org/1999/xlink"><rect width="640" height="400" x="0" y="0" opacity="1" fill="#04638000" data-fill-palette-color="background" id="background"></rect><g id="tight-bounds" transform="matrix(1,0,0,1,122.24000000000001,76.4)"><svg viewBox="0 0 395.52 247.2" height="247.2" width="395.52"><g><svg></svg></g><g><svg viewBox="0 0 395.52 247.2" height="247.2" width="395.52"><g transform="matrix(1,0,0,1,75.54432,94.704315238721)"><svg viewBox="0 0 244.43135999999998 57.791369522557986" height="57.791369522557986" width="244.43135999999998"><g><svg viewBox="0 0 244.43135999999998 57.791369522557986" height="57.791369522557986" width="244.43135999999998"><g><svg viewBox="0 0 331.81796931471416 78.4523511176776" height="57.791369522557986" width="244.43135999999998"><g transform="matrix(1,0,0,1,0,20.30375609003089)"><svg viewBox="0 0 244.43135999999998 37.84483893761581" height="37.84483893761581" width="244.43135999999998"><g><svg viewBox="0 0 244.43135999999998 37.84483893761581" height="37.84483893761581" width="244.43135999999998"><g><svg viewBox="0 0 244.43135999999998 37.84483893761581" height="37.84483893761581" width="244.43135999999998"><g transform="matrix(1,0,0,1,0,0)"><svg width="244.43135999999998" viewBox="1.600000023841858 -37.099998474121094 242.82998657226562 37.599998474121094" height="37.84483893761581" data-palette-color="#ffffff"><path d="M18.45-3L18.45-3Q16.7-1.3 14.6-0.4 12.5 0.5 9.85 0.5L9.85 0.5Q6 0.5 3.8-1.5 1.6-3.5 1.6-6.75L1.6-6.75Q1.6-9.5 3.18-11.45 4.75-13.4 7.78-14.55 10.8-15.7 15.15-15.9L15.15-15.9 18.4-16.15Q18.7-16.2 18.95-16.35 19.2-16.5 19.2-16.9L19.2-16.9 19.2-18.15Q19.2-20.6 17.7-22.03 16.2-23.45 13.6-23.45L13.6-23.45Q11.65-23.45 10-22.55 8.35-21.65 7.05-19.75L7.05-19.75Q6.9-19.5 6.75-19.4 6.6-19.3 6.2-19.4L6.2-19.4 2.8-20.4Q2.6-20.5 2.53-20.68 2.45-20.85 2.65-21.35L2.65-21.35Q4.1-24.05 6.93-25.53 9.75-27 13.85-27L13.85-27Q17.45-27 19.75-25.98 22.05-24.95 23.18-23.03 24.3-21.1 24.3-18.5L24.3-18.5 24.3-0.85Q24.3-0.35 24.13-0.18 23.95 0 23.55 0L23.55 0 20.15 0Q19.8 0 19.6-0.28 19.4-0.55 19.35-1L19.35-1 19.3-2.9Q19.15-3.7 18.45-3L18.45-3ZM19.2-12.45L19.2-12.45Q19.2-13.3 18.5-13.2L18.5-13.2 15.8-13Q13.8-12.9 12.15-12.48 10.5-12.05 9.33-11.35 8.15-10.65 7.48-9.68 6.8-8.7 6.8-7.4L6.8-7.4Q6.8-5.45 8.18-4.33 9.55-3.2 11.9-3.2L11.9-3.2Q13.4-3.2 14.73-3.73 16.05-4.25 17.05-5.05L17.05-5.05Q18.05-5.9 18.63-6.8 19.2-7.7 19.2-8.55L19.2-8.55 19.2-12.45ZM42.45-27L42.45-27Q45.25-27 47.32-26.08 49.4-25.15 50.82-23.63 52.25-22.1 53.1-20.35L53.1-20.35Q53.4-19.65 52.75-19.5L52.75-19.5 49.2-18.9Q48.75-18.8 48.55-19.3L48.55-19.3Q47.7-20.6 46.85-21.45 46-22.3 45-22.8 44-23.3 42.7-23.3L42.7-23.3Q40.4-23.3 38.67-22.13 36.95-20.95 36.02-18.7 35.1-16.45 35.1-13.25L35.1-13.25Q35.1-10.05 36.05-7.78 37-5.5 38.75-4.33 40.5-3.15 42.9-3.15L42.9-3.15Q45.25-3.15 46.85-4.35 48.45-5.55 49.8-7.75L49.8-7.75Q49.95-7.95 50.07-8 50.2-8.05 50.5-7.95L50.5-7.95 53.15-7.15Q53.55-7 53.35-6.4L53.35-6.4Q52.75-5.15 51.77-3.9 50.8-2.65 49.47-1.68 48.15-0.7 46.4-0.1 44.65 0.5 42.45 0.5L42.45 0.5Q38.7 0.5 35.82-1.23 32.95-2.95 31.32-6.03 29.7-9.1 29.7-13.15L29.7-13.15Q29.7-17.25 31.35-20.35 33-23.45 35.87-25.23 38.75-27 42.45-27L42.45-27ZM69.4-27L69.4-27Q72.2-27 74.27-26.08 76.34-25.15 77.77-23.63 79.2-22.1 80.05-20.35L80.05-20.35Q80.34-19.65 79.7-19.5L79.7-19.5 76.15-18.9Q75.7-18.8 75.5-19.3L75.5-19.3Q74.65-20.6 73.8-21.45 72.95-22.3 71.95-22.8 70.95-23.3 69.65-23.3L69.65-23.3Q67.34-23.3 65.62-22.13 63.9-20.95 62.97-18.7 62.05-16.45 62.05-13.25L62.05-13.25Q62.05-10.05 63-7.78 63.95-5.5 65.7-4.33 67.45-3.15 69.84-3.15L69.84-3.15Q72.2-3.15 73.8-4.35 75.4-5.55 76.75-7.75L76.75-7.75Q76.9-7.95 77.02-8 77.15-8.05 77.45-7.95L77.45-7.95 80.09-7.15Q80.5-7 80.3-6.4L80.3-6.4Q79.7-5.15 78.72-3.9 77.75-2.65 76.42-1.68 75.09-0.7 73.34-0.1 71.59 0.5 69.4 0.5L69.4 0.5Q65.65 0.5 62.77-1.23 59.9-2.95 58.27-6.03 56.65-9.1 56.65-13.15L56.65-13.15Q56.65-17.25 58.3-20.35 59.95-23.45 62.82-25.23 65.7-27 69.4-27L69.4-27ZM89.04-11.4L89.04-11.4Q89.04-9.15 90.12-7.33 91.19-5.5 93.02-4.42 94.84-3.35 97.09-3.35L97.09-3.35Q99.39-3.35 101.19-4.3 102.99-5.25 104.49-7.25L104.49-7.25Q104.64-7.45 104.79-7.48 104.94-7.5 105.24-7.35L105.24-7.35 107.79-6.15Q108.34-5.9 107.89-5.35L107.89-5.35Q106.49-3.3 104.82-2 103.14-0.7 101.09-0.1 99.04 0.5 96.54 0.5L96.54 0.5Q92.74 0.5 89.84-1.2 86.94-2.9 85.27-5.95 83.59-9 83.59-12.95L83.59-12.95Q83.59-17.3 85.29-20.43 86.99-23.55 89.92-25.28 92.84-27 96.44-27L96.44-27Q100.14-27 102.92-25.38 105.69-23.75 107.24-20.7 108.79-17.65 108.79-13.3L108.79-13.3Q108.79-12.85 108.69-12.53 108.59-12.2 108.04-12.2L108.04-12.2 89.54-12.2Q89.29-12.2 89.17-11.98 89.04-11.75 89.04-11.4L89.04-11.4ZM89.14-15.4L102.69-15.35Q103.24-15.35 103.39-15.5 103.54-15.65 103.54-16.05L103.54-16.05Q103.54-17.95 102.72-19.65 101.89-21.35 100.37-22.4 98.84-23.45 96.59-23.45L96.59-23.45Q94.24-23.45 92.57-22.33 90.89-21.2 90.02-19.35 89.14-17.5 89.14-15.4L89.14-15.4ZM130.14-20.3L130.14-20.3Q129.19-21.7 127.49-22.6 125.79-23.5 123.44-23.5L123.44-23.5Q120.99-23.5 119.37-22.5 117.74-21.5 117.74-19.7L117.74-19.7Q117.74-18.85 118.44-18 119.14-17.15 121.44-16.5L121.44-16.5 127.59-14.75Q131.24-13.8 132.84-11.9 134.44-10 134.44-7.55L134.44-7.55Q134.44-5.05 133.02-3.28 131.59-1.5 129.06-0.5 126.54 0.5 123.29 0.5L123.29 0.5Q119.19 0.5 116.17-1.07 113.14-2.65 111.89-5L111.89-5Q111.79-5.3 111.79-5.53 111.79-5.75 111.99-5.9L111.99-5.9 114.44-7.2Q114.79-7.4 115.02-7.38 115.24-7.35 115.34-7.15L115.34-7.15Q116.14-6 117.19-5.1 118.24-4.2 119.74-3.68 121.24-3.15 123.34-3.15L123.34-3.15Q125.09-3.15 126.52-3.63 127.94-4.1 128.74-4.95 129.54-5.8 129.54-6.95L129.54-6.95Q129.54-8.15 128.56-9.03 127.59-9.9 125.14-10.55L125.14-10.55 120.04-11.85Q116.24-12.85 114.59-14.6 112.94-16.35 112.94-18.8L112.94-18.8Q112.94-21.25 114.24-23.08 115.54-24.9 117.92-25.95 120.29-27 123.49-27L123.49-27Q126.99-27 129.64-25.68 132.29-24.35 133.64-22.3L133.64-22.3Q133.79-22.1 133.84-21.88 133.89-21.65 133.59-21.45L133.59-21.45 130.99-20.1Q130.79-20 130.56-20.05 130.34-20.1 130.14-20.3L130.14-20.3ZM155.99-20.3L155.99-20.3Q155.04-21.7 153.34-22.6 151.64-23.5 149.29-23.5L149.29-23.5Q146.84-23.5 145.21-22.5 143.59-21.5 143.59-19.7L143.59-19.7Q143.59-18.85 144.29-18 144.99-17.15 147.29-16.5L147.29-16.5 153.44-14.75Q157.09-13.8 158.69-11.9 160.29-10 160.29-7.55L160.29-7.55Q160.29-5.05 158.86-3.28 157.44-1.5 154.91-0.5 152.39 0.5 149.14 0.5L149.14 0.5Q145.04 0.5 142.01-1.07 138.99-2.65 137.74-5L137.74-5Q137.64-5.3 137.64-5.53 137.64-5.75 137.84-5.9L137.84-5.9 140.29-7.2Q140.64-7.4 140.86-7.38 141.09-7.35 141.19-7.15L141.19-7.15Q141.99-6 143.04-5.1 144.09-4.2 145.59-3.68 147.09-3.15 149.19-3.15L149.19-3.15Q150.94-3.15 152.36-3.63 153.79-4.1 154.59-4.95 155.39-5.8 155.39-6.95L155.39-6.95Q155.39-8.15 154.41-9.03 153.44-9.9 150.99-10.55L150.99-10.55 145.89-11.85Q142.09-12.85 140.44-14.6 138.79-16.35 138.79-18.8L138.79-18.8Q138.79-21.25 140.09-23.08 141.39-24.9 143.76-25.95 146.14-27 149.34-27L149.34-27Q152.84-27 155.49-25.68 158.14-24.35 159.49-22.3L159.49-22.3Q159.64-22.1 159.69-21.88 159.74-21.65 159.44-21.45L159.44-21.45 156.84-20.1Q156.64-20 156.41-20.05 156.19-20.1 155.99-20.3L155.99-20.3ZM171.09-25.8L171.09-0.95Q171.09-0.4 170.86-0.2 170.63 0 170.09 0L170.09 0 166.69 0Q166.13 0 165.96-0.18 165.78-0.35 165.78-0.8L165.78-0.8 165.78-25.75Q165.78-26.5 166.48-26.5L166.48-26.5 170.48-26.5Q171.09-26.5 171.09-25.8L171.09-25.8ZM171.23-36.3L171.23-31.8Q171.23-30.75 170.23-30.75L170.23-30.75 166.53-30.75Q165.98-30.75 165.81-31 165.63-31.25 165.63-31.7L165.63-31.7 165.63-36.25Q165.63-37.1 166.38-37.1L166.38-37.1 170.53-37.1Q171.23-37.1 171.23-36.3L171.23-36.3ZM181.13 0L179.03 0Q178.53 0 178.33-0.2 178.13-0.4 178.13-0.9L178.13-0.9 178.13-36.35Q178.13-37.1 178.83-37.1L178.83-37.1 182.83-37.1Q183.43-37.1 183.43-36.35L183.43-36.35 183.43-24.25Q183.43-23.75 183.66-23.7 183.88-23.65 184.23-23.95L184.23-23.95Q184.78-24.5 185.81-25.2 186.83-25.9 188.36-26.45 189.88-27 191.88-27L191.88-27Q195.48-27 197.83-25.23 200.18-23.45 201.36-20.4 202.53-17.35 202.53-13.4L202.53-13.4Q202.53-7 199.56-3.25 196.58 0.5 191.13 0.5L191.13 0.5Q188.98 0.5 187.38-0.15 185.78-0.8 184.73-1.75 183.68-2.7 183.08-3.45L183.08-3.45Q182.88-3.7 182.71-3.68 182.53-3.65 182.53-3.3L182.53-3.3 182.13-0.85Q181.98 0 181.13 0L181.13 0ZM183.43-20L183.43-9Q183.43-7.3 184.36-5.95 185.28-4.6 186.76-3.83 188.23-3.05 189.93-3.05L189.93-3.05Q191.98-3.05 193.61-4.1 195.23-5.15 196.16-7.43 197.08-9.7 197.08-13.3L197.08-13.3Q197.08-18.25 195.33-20.8 193.58-23.35 190.18-23.35L190.18-23.35Q188.13-23.35 186.38-22.4 184.63-21.45 183.43-20L183.43-20ZM213.58-36.35L213.58-0.95Q213.58-0.4 213.35-0.2 213.13 0 212.53 0L212.53 0 209.13 0Q208.23 0 208.23-0.8L208.23-0.8 208.33-36.35Q208.33-37.1 208.98-37.1L208.98-37.1 212.93-37.1Q213.58-37.1 213.58-36.35L213.58-36.35ZM224.68-11.4L224.68-11.4Q224.68-9.15 225.75-7.33 226.83-5.5 228.65-4.42 230.48-3.35 232.73-3.35L232.73-3.35Q235.03-3.35 236.83-4.3 238.63-5.25 240.13-7.25L240.13-7.25Q240.28-7.45 240.43-7.48 240.58-7.5 240.88-7.35L240.88-7.35 243.43-6.15Q243.98-5.9 243.53-5.35L243.53-5.35Q242.13-3.3 240.45-2 238.78-0.7 236.73-0.1 234.68 0.5 232.18 0.5L232.18 0.5Q228.38 0.5 225.48-1.2 222.58-2.9 220.9-5.95 219.23-9 219.23-12.95L219.23-12.95Q219.23-17.3 220.93-20.43 222.63-23.55 225.55-25.28 228.48-27 232.08-27L232.08-27Q235.78-27 238.55-25.38 241.33-23.75 242.88-20.7 244.43-17.65 244.43-13.3L244.43-13.3Q244.43-12.85 244.33-12.53 244.23-12.2 243.68-12.2L243.68-12.2 225.18-12.2Q224.93-12.2 224.8-11.98 224.68-11.75 224.68-11.4L224.68-11.4ZM224.78-15.4L238.33-15.35Q238.88-15.35 239.03-15.5 239.18-15.65 239.18-16.05L239.18-16.05Q239.18-17.95 238.35-19.65 237.53-21.35 236-22.4 234.48-23.45 232.23-23.45L232.23-23.45Q229.88-23.45 228.2-22.33 226.53-21.2 225.65-19.35 224.78-17.5 224.78-15.4L224.78-15.4Z" opacity="1" transform="matrix(1,0,0,1,0,0)" fill="#3a4454" class="undefined-text-0" data-fill-palette-color="primary" id="text-0"></path></svg></g></svg></g></svg></g></svg></g><g transform="matrix(1,0,0,1,253.36561819703658,0)"><svg viewBox="0 0 78.4523511176776 78.4523511176776" height="78.4523511176776" width="78.4523511176776"><g><svg xmlns="http://www.w3.org/2000/svg" xmlns:xlink="http://www.w3.org/1999/xlink" version="1.1" x="0" y="0" viewBox="12.5 12.5 75 75" enable-background="new 0 0 100 100" xml:space="preserve" height="78.4523511176776" width="78.4523511176776" class="icon-icon-0" data-fill-palette-color="accent" id="icon-0"><g fill="#ffffff" data-fill-palette-color="accent"><path d="M31.088 12.5c-10.25 0-18.588 8.338-18.588 18.588v37.824c0 10.25 8.338 18.588 18.588 18.588h37.824c10.25 0 18.588-8.338 18.588-18.588V31.088c0-10.25-8.338-18.588-18.588-18.588H31.088zM43.419 64.907c-3.046 0-5.851-1.027-8.111-2.738H51.53C49.27 63.88 46.466 64.907 43.419 64.907zM68.932 71.132c-1.513 0-2.745-1.231-2.745-2.745s1.231-2.745 2.745-2.745 2.745 1.231 2.745 2.745S70.445 71.132 68.932 71.132zM82.5 31.088v37.824c0 6.63-4.777 12.158-11.067 13.344V75.71c3.046-1.043 5.244-3.928 5.244-7.323 0-4.271-3.474-7.745-7.745-7.745s-7.745 3.474-7.745 7.745c0 3.395 2.199 6.28 5.245 7.323V82.5H45.92V69.718c5.554-0.757 10.322-3.981 13.169-8.539 0.114-0.149 0.214-0.308 0.293-0.481 1.592-2.73 2.52-5.892 2.52-9.273V39.07c0-4.575-3.137-8.421-7.37-9.529-0.052-1.335-1.143-2.403-2.49-2.403-1.381 0-2.5 1.119-2.5 2.5v4.144c0 1.381 1.119 2.5 2.5 2.5 1.016 0 1.886-0.608 2.277-1.479 1.529 0.82 2.582 2.414 2.582 4.267v12.354c0 2.057-0.476 3.999-1.303 5.745H31.24c-0.827-1.746-1.303-3.689-1.303-5.745V39.07c0-1.852 1.054-3.447 2.583-4.267 0.391 0.87 1.261 1.479 2.277 1.479 1.381 0 2.5-1.119 2.5-2.5v-4.144c0-1.381-1.119-2.5-2.5-2.5-1.348 0-2.438 1.068-2.49 2.403-4.233 1.108-7.37 4.954-7.37 9.529v12.354c0 3.382 0.928 6.544 2.52 9.274 0.078 0.173 0.179 0.332 0.292 0.481 2.848 4.558 7.616 7.783 13.171 8.539V82.5h-9.833c-7.492 0-13.588-6.096-13.588-13.588V31.088c0-7.492 6.096-13.588 13.588-13.588h37.824C76.404 17.5 82.5 23.596 82.5 31.088z" fill="#38a3a5" data-fill-palette-color="accent"></path><path d="M74.18 29.29c0.66 0 1.3-0.26 1.76-0.73 0.47-0.46 0.74-1.11 0.74-1.77 0-0.65-0.27-1.3-0.74-1.76-0.93-0.93-2.6-0.93-3.53 0-0.47 0.46-0.73 1.11-0.73 1.76 0 0.66 0.26 1.31 0.73 1.77C72.87 29.03 73.52 29.29 74.18 29.29z" fill="#38a3a5" data-fill-palette-color="accent"></path></g></svg></g></svg></g></svg></g></svg></g></svg></g><path d="M195.48 88.704L195.48 24.188 394.304 24.188 394.304 223.012 195.48 223.012 195.48 158.496 197.994 158.496 197.994 220.498 391.79 220.498 391.79 26.702 197.994 26.702 197.994 88.704Z" fill="#6b4e71" stroke="transparent" data-fill-palette-color="primary"></path></svg></g><defs></defs></svg><rect width="395.52" height="247.2" fill="none" stroke="none" visibility="hidden"></rect></g></svg>
