<svg
  viewBox="0 0 640 400"
  data-background-color="#04638000"
  preserveAspectRatio="xMidYMid meet"
  height="400"
  width="640"
  xmlns="http://www.w3.org/2000/svg"
  xmlns:xlink="http://www.w3.org/1999/xlink"
>
  <rect
    width="640"
    height="400"
    x="0"
    y="0"
    opacity="1"
    fill="#04638000"
    data-fill-palette-color="background"
    id="background"
  ></rect>
  <g id="tight-bounds" transform="matrix(1,0,0,1,122.24000000000001,76.4)">
    <svg viewBox="0 0 395.52 247.2" height="247.2" width="395.52">
      <g><svg></svg></g>
      <g>
        <svg viewBox="0 0 395.52 247.2" height="247.2" width="395.52">
          <g transform="matrix(1,0,0,1,75.54432,68.01869636270482)">
            <svg
              viewBox="0 0 244.43135999999998 111.16260727459036"
              height="111.16260727459036"
              width="244.43135999999998"
            >
              <g>
                <svg
                  viewBox="0 0 244.43135999999998 111.16260727459036"
                  height="111.16260727459036"
                  width="244.43135999999998"
                >
                  <g>
                    <svg
                      viewBox="0 0 335.9194427890285 152.7696"
                      height="111.16260727459036"
                      width="244.43135999999998"
                    >
                      <g
                        transform="matrix(1,0,0,1,191.6719858038857,4.2508843748186536)"
                      >
                        <svg
                          viewBox="0 0 144.24745698514283 144.2678312503627"
                          height="144.2678312503627"
                          width="144.24745698514283"
                        >
                          <g>
                            <svg
                              xmlns="http://www.w3.org/2000/svg"
                              xmlns:xlink="http://www.w3.org/1999/xlink"
                              version="1.1"
                              x="0"
                              y="0"
                              viewBox="3.924999237060547 3.9179935455322266 92.14999389648438 92.16300964355469"
                              enable-background="new 0 0 100 100"
                              xml:space="preserve"
                              height="144.2678312503627"
                              width="144.24745698514283"
                              class="icon-icon-0"
                              data-fill-palette-color="accent"
                              id="icon-0"
                            >
                              <g
                                fill="#ffffff"
                                data-fill-palette-color="accent"
                              >
                                <path
                                  d="M88.796 48.622l-8.2-8.201c5.33-5.828 5.178-14.908-0.462-20.549-2.811-2.809-6.543-4.355-10.518-4.355l0 0c-3.973 0-7.709 1.547-10.518 4.355L30.338 48.634l-8.2-8.199 28.761-28.763c4.999-4.999 11.646-7.753 18.718-7.753 0 0 0 0 0.002 0 7.068 0 13.715 2.753 18.717 7.753C98.497 21.834 98.643 38.267 88.796 48.622z"
                                  fill="#000000"
                                  data-fill-palette-color="accent"
                                ></path>
                                <g
                                  fill="#ffffff"
                                  data-fill-palette-color="accent"
                                >
                                  <path
                                    d="M49.113 88.327c-4.999 5-11.646 7.754-18.718 7.754s-13.719-2.754-18.718-7.754C1.516 78.167 1.366 61.735 11.216 51.378l8.2 8.201c-5.331 5.83-5.178 14.908 0.462 20.549 2.809 2.809 6.545 4.355 10.518 4.355s7.708-1.547 10.518-4.355l28.76-28.76 8.2 8.199L49.113 88.327z"
                                    fill="#000000"
                                    data-fill-palette-color="accent"
                                  ></path>
                                </g>
                                <path
                                  d="M88.335 88.327c-5.002 5-11.648 7.754-18.719 7.754-6.846 0-13.291-2.588-18.231-7.291l8.2-8.199c2.748 2.514 6.282 3.893 10.031 3.893 3.974 0 7.707-1.547 10.518-4.355 5.799-5.799 5.799-15.234 0-21.035l-28.761-28.76 8.2-8.201 28.762 28.76C98.655 61.214 98.655 78.007 88.335 88.327z"
                                  fill="#000000"
                                  data-fill-palette-color="accent"
                                ></path>
                                <g
                                  fill="#ffffff"
                                  data-fill-palette-color="accent"
                                >
                                  <path
                                    d="M40.427 19.41c-2.747-2.516-6.282-3.894-10.03-3.894 0 0 0 0-0.001 0-3.974 0-7.709 1.547-10.518 4.355-2.81 2.81-4.356 6.544-4.356 10.518 0 3.973 1.548 7.707 4.356 10.518l28.761 28.76-8.2 8.201-28.761-28.76c-4.999-5-7.753-11.648-7.753-18.719s2.753-13.718 7.753-18.718c4.998-4.999 11.646-7.753 18.717-7.753 0.001 0 0.002 0 0.002 0 6.845 0 13.289 2.589 18.23 7.29L40.427 19.41z"
                                    fill="#000000"
                                    data-fill-palette-color="accent"
                                  ></path>
                                </g>
                              </g>
                            </svg>
                          </g>
                        </svg>
                      </g>
                    </svg>
                  </g>
                </svg>
              </g>
            </svg>
          </g>
          <path
            d="M161.927 62.019L161.927 12.524 384.079 12.524 384.079 234.676 161.927 234.676 161.927 185.181 171.952 185.181 171.952 224.651 374.054 224.651 374.054 22.549 171.952 22.549 171.952 62.019Z"
            fill="#000000"
            stroke="transparent"
            data-fill-palette-color="primary"
          ></path>
        </svg>
      </g>
      <defs></defs>
    </svg>
    <rect
      width="395.52"
      height="247.2"
      fill="none"
      stroke="none"
      visibility="hidden"
    ></rect>
  </g>
</svg>
