<svg
  id="svg"
  version="1.1"
  xmlns="http://www.w3.org/2000/svg"
  xmlns:xlink="http://www.w3.org/1999/xlink"
  width="400"
  height="399.6292863762743"
  viewBox="0, 0, 400,399.6292863762743"
>
  <g id="svgg">
    <path
      id="path0"
      d="M189.688 132.889 C 185.696 134.293,185.728 134.126,185.728 154.205 L 185.728 171.270 187.581 171.270 L 189.435 171.270 189.435 154.460 C 189.435 134.126,188.438 136.427,197.250 136.405 C 212.008 136.367,210.565 135.760,210.565 142.010 L 210.565 146.432 212.419 146.432 L 214.272 146.432 214.272 141.594 C 214.272 135.487,213.496 133.807,210.195 132.770 C 208.239 132.155,191.498 132.252,189.688 132.889 M164.604 157.646 C 161.437 159.264,161.461 159.170,161.337 170.912 C 161.215 182.460,161.240 182.601,163.733 184.504 L 165.095 185.542 182.547 185.542 L 200.000 185.542 200.113 183.781 L 200.226 182.020 183.726 182.020 C 166.454 182.020,165.604 181.946,165.189 180.400 C 165.073 179.966,164.975 175.751,164.973 171.033 C 164.966 160.196,164.555 160.913,170.806 160.857 L 175.348 160.816 175.348 158.814 L 175.348 156.812 170.792 156.812 C 166.799 156.812,166.035 156.915,164.604 157.646 M94.781 223.808 C 94.502 224.260,85.635 244.337,85.635 244.517 C 85.635 244.602,86.384 244.671,87.299 244.671 L 88.964 244.671 90.056 242.261 L 91.149 239.852 96.482 239.852 L 101.815 239.852 102.764 242.169 L 103.713 244.486 105.590 244.597 L 107.467 244.708 105.220 239.592 C 103.983 236.779,101.918 232.057,100.630 229.101 L 98.288 223.726 96.629 223.614 C 95.716 223.553,94.885 223.640,94.781 223.808 M121.146 224.060 C 111.934 226.540,110.664 239.219,119.184 243.652 C 123.940 246.126,133.520 243.434,131.259 240.259 L 130.464 239.144 128.801 240.198 C 122.313 244.313,114.374 237.945,117.476 231.114 C 119.561 226.524,125.650 225.291,129.507 228.679 C 130.245 229.327,132.194 227.731,131.870 226.743 C 131.152 224.553,125.018 223.018,121.146 224.060 M146.726 224.060 C 137.513 226.540,136.243 239.219,144.764 243.652 C 149.520 246.126,159.099 243.434,156.838 240.259 L 156.044 239.144 154.381 240.198 C 147.892 244.313,139.953 237.945,143.056 231.114 C 145.141 226.524,151.229 225.291,155.086 228.679 C 155.824 229.327,157.773 227.731,157.449 226.743 C 156.731 224.553,150.598 223.018,146.726 224.060 M166.080 234.106 L 166.080 244.671 173.679 244.671 L 181.279 244.671 181.279 243.198 L 181.279 241.724 175.440 241.622 L 169.601 241.520 169.493 238.647 L 169.385 235.774 174.591 235.774 L 179.796 235.774 179.796 234.106 L 179.796 232.437 174.606 232.437 L 169.416 232.437 169.416 229.657 L 169.416 226.877 175.162 226.877 L 180.908 226.877 180.908 225.209 L 180.908 223.540 173.494 223.540 L 166.080 223.540 166.080 234.106 M194.267 223.954 C 187.274 226.080,188.359 232.896,196.072 235.293 C 200.629 236.710,202.145 238.353,200.626 240.228 C 199.224 241.960,195.010 241.769,191.889 239.833 C 190.895 239.216,190.040 238.759,189.990 238.818 C 188.229 240.895,188.592 241.980,191.526 243.416 C 198.723 246.936,206.776 242.744,204.461 236.682 C 203.725 234.753,202.230 233.745,198.146 232.422 C 194.186 231.139,193.121 230.178,193.685 228.399 C 194.227 226.694,198.641 226.406,201.624 227.882 L 203.177 228.650 203.905 227.222 C 204.836 225.398,204.939 225.618,202.688 224.642 C 200.468 223.680,196.291 223.338,194.267 223.954 M217.082 224.091 C 213.610 225.328,212.042 229.243,213.849 232.166 C 214.720 233.577,215.364 233.931,219.800 235.445 C 224.273 236.971,225.489 238.645,223.540 240.593 C 222.030 242.103,215.867 241.217,214.239 239.255 C 213.578 238.459,213.201 238.630,212.533 240.029 C 211.760 241.651,212.264 242.339,215.133 243.578 C 221.398 246.284,227.594 244.070,227.916 239.011 C 228.135 235.575,227.016 234.391,221.872 232.615 C 218.031 231.289,216.867 230.421,216.867 228.883 C 216.867 226.734,221.505 226.194,224.935 227.944 L 226.493 228.739 227.067 227.364 C 227.859 225.469,227.642 225.175,224.818 224.303 C 221.976 223.425,219.167 223.348,217.082 224.091 M237.257 234.106 L 237.257 244.671 238.925 244.671 L 240.593 244.671 240.593 234.106 L 240.593 223.540 238.925 223.540 L 237.257 223.540 237.257 234.106 M250.973 234.138 L 250.973 244.735 256.997 244.610 C 263.621 244.473,265.118 244.060,266.707 241.931 C 268.428 239.626,267.434 235.582,264.832 234.300 L 263.722 233.753 265.099 232.443 C 266.868 230.760,267.269 228.952,266.303 227.009 C 264.942 224.271,262.610 223.546,255.144 223.542 L 250.973 223.540 250.973 234.138 M276.552 234.106 L 276.552 244.671 282.854 244.671 L 289.157 244.671 289.157 243.200 L 289.157 241.728 284.615 241.624 L 280.074 241.520 279.975 232.530 L 279.876 223.540 278.214 223.540 L 276.552 223.540 276.552 234.106 M297.312 234.106 L 297.312 244.671 304.912 244.671 L 312.512 244.671 312.512 243.198 L 312.512 241.724 306.673 241.622 L 300.834 241.520 300.726 238.647 L 300.618 235.774 305.823 235.774 L 311.029 235.774 311.029 234.106 L 311.029 232.437 305.839 232.437 L 300.649 232.437 300.649 229.657 L 300.649 226.877 306.395 226.877 L 312.141 226.877 312.141 225.209 L 312.141 223.540 304.727 223.540 L 297.312 223.540 297.312 234.106 M262.465 227.618 C 264.927 230.080,262.922 232.208,257.979 232.380 L 254.310 232.507 254.310 229.692 L 254.310 226.877 258.017 226.877 C 261.230 226.877,261.823 226.976,262.465 227.618 M98.515 232.159 L 100.417 236.701 98.401 236.812 C 97.293 236.873,95.482 236.873,94.377 236.812 L 92.369 236.701 94.285 232.165 C 95.338 229.670,96.293 227.626,96.407 227.623 C 96.521 227.621,97.469 229.662,98.515 232.159 M262.294 235.941 C 266.768 237.810,264.053 241.340,257.924 241.624 L 254.310 241.792 254.310 238.597 L 254.310 235.403 257.658 235.403 C 259.746 235.403,261.491 235.606,262.294 235.941 "
      stroke="none"
      fill="#0a9e9e"
      fill-rule="evenodd"
    ></path>
    <path
      id="path1"
      d="M0.000 199.815 L 0.000 399.629 200.000 399.629 L 400.000 399.629 400.000 199.815 L 400.000 0.000 200.000 0.000 L 0.000 0.000 0.000 199.815 M211.534 133.112 C 214.107 134.702,214.443 135.632,214.586 141.539 L 214.714 146.842 212.547 146.729 L 210.380 146.617 210.280 141.983 C 210.198 138.163,210.071 137.268,209.560 136.886 C 208.542 136.125,191.160 136.233,190.388 137.005 C 189.875 137.518,189.805 139.613,189.805 154.429 L 189.805 171.270 187.581 171.270 L 185.357 171.270 185.373 154.495 C 185.396 130.756,184.322 132.366,200.142 132.353 C 209.769 132.345,210.357 132.384,211.534 133.112 M175.348 158.821 L 175.348 160.829 170.699 160.952 C 167.068 161.048,165.974 161.197,165.700 161.631 C 165.045 162.670,165.246 180.392,165.921 181.067 C 166.433 181.580,168.529 181.650,183.344 181.650 L 200.185 181.650 200.185 183.689 L 200.185 185.728 182.631 185.728 L 165.077 185.728 163.818 184.890 C 161.138 183.110,160.889 181.949,160.898 171.284 C 160.907 160.801,161.131 159.586,163.349 158.033 C 164.957 156.906,165.157 156.873,170.436 156.841 L 175.348 156.812 175.348 158.821 M235.780 157.498 C 238.682 159.041,238.740 159.308,238.738 171.232 C 238.736 185.612,238.667 185.724,229.750 185.726 L 224.652 185.728 224.652 183.689 L 224.652 181.650 229.265 181.650 C 235.456 181.650,235.032 182.415,235.032 171.228 C 235.032 159.476,237.520 160.905,216.867 160.794 L 200.000 160.704 199.888 158.758 L 199.776 156.812 217.132 156.812 C 233.312 156.812,234.575 156.858,235.780 157.498 M214.635 188.230 C 214.624 211.774,215.925 209.825,200.228 209.823 C 185.508 209.821,185.580 209.864,185.556 200.927 L 185.542 195.922 187.581 195.922 L 189.620 195.922 189.730 200.556 C 189.874 206.598,188.966 206.117,200.235 206.117 C 209.297 206.117,209.418 206.107,209.988 205.293 C 210.490 204.577,210.565 202.293,210.565 187.869 L 210.565 171.270 212.604 171.270 L 214.643 171.270 214.635 188.230 M102.992 233.875 C 108.283 245.986,107.975 244.671,105.524 244.671 L 103.540 244.671 102.516 242.261 L 101.492 239.852 96.383 239.852 L 91.274 239.852 90.349 242.169 L 89.423 244.486 87.331 244.597 L 85.238 244.709 85.761 243.485 C 86.048 242.812,87.909 238.591,89.896 234.106 C 91.883 229.620,93.741 225.408,94.025 224.745 C 94.515 223.602,94.643 223.540,96.510 223.540 L 98.478 223.540 102.992 233.875 M129.588 224.746 C 132.405 226.188,132.636 226.610,131.458 228.155 L 130.481 229.435 128.674 228.312 C 125.420 226.289,122.149 226.415,119.662 228.659 C 112.877 234.781,121.008 245.130,128.636 240.082 C 130.438 238.889,130.471 238.891,131.553 240.260 C 132.669 241.672,132.218 242.269,128.896 243.776 C 117.616 248.895,107.636 235.017,116.483 226.516 C 119.732 223.393,125.442 222.622,129.588 224.746 M155.167 224.746 C 157.984 226.188,158.215 226.610,157.037 228.155 L 156.061 229.435 154.253 228.312 C 150.999 226.289,147.728 226.415,145.241 228.659 C 138.456 234.781,146.587 245.130,154.216 240.082 C 156.018 238.889,156.050 238.891,157.132 240.260 C 158.248 241.672,157.797 242.269,154.475 243.776 C 143.195 248.895,133.215 235.017,142.062 226.516 C 145.312 223.393,151.021 222.622,155.167 224.746 M181.279 225.209 L 181.279 226.877 175.533 226.877 L 169.787 226.877 169.787 229.657 L 169.787 232.437 174.977 232.437 L 180.167 232.437 180.167 234.106 L 180.167 235.774 174.977 235.774 L 169.787 235.774 169.787 238.554 L 169.787 241.335 175.718 241.335 L 181.650 241.335 181.650 243.003 L 181.650 244.671 173.865 244.671 L 166.080 244.671 166.080 234.106 L 166.080 223.540 173.679 223.540 L 181.279 223.540 181.279 225.209 M202.236 224.318 C 204.675 225.230,204.851 225.526,204.071 227.392 C 203.619 228.474,203.340 228.736,202.854 228.535 C 197.483 226.316,193.883 226.454,193.883 228.879 C 193.883 230.302,194.939 231.288,197.144 231.926 C 203.117 233.652,205.005 235.288,205.005 238.740 C 205.005 244.306,197.703 246.696,191.022 243.316 C 188.269 241.923,188.130 241.681,189.050 239.880 C 189.959 238.097,189.891 238.114,191.447 239.301 C 195.018 242.024,200.927 241.827,200.927 238.984 C 200.927 237.626,199.430 236.572,195.777 235.357 C 190.261 233.522,188.505 231.070,190.011 227.305 C 191.411 223.805,197.130 222.408,202.236 224.318 M224.870 224.085 C 227.978 225.008,228.277 225.375,227.440 227.230 C 226.948 228.323,226.569 228.724,226.160 228.588 C 225.841 228.481,224.578 228.036,223.355 227.599 C 219.855 226.349,217.238 226.986,217.238 229.089 C 217.238 230.512,218.080 231.122,221.880 232.450 C 226.928 234.215,228.355 235.542,228.358 238.473 C 228.364 244.193,220.673 246.799,214.173 243.279 C 211.635 241.904,211.501 241.651,212.392 239.904 L 213.151 238.417 215.239 239.674 C 218.760 241.795,222.736 241.842,223.891 239.776 C 224.821 238.113,223.630 236.944,219.614 235.578 C 214.208 233.739,213.125 232.802,212.880 229.753 C 212.487 224.861,218.273 222.126,224.870 224.085 M240.593 234.106 L 240.593 244.671 238.740 244.671 L 236.886 244.671 236.886 234.106 L 236.886 223.540 238.740 223.540 L 240.593 223.540 240.593 234.106 M263.004 223.951 C 266.967 225.051,268.353 229.590,265.575 232.368 C 264.749 233.194,264.411 233.766,264.694 233.860 C 267.956 234.947,268.845 240.321,266.175 242.815 C 264.554 244.329,262.752 244.671,256.398 244.671 L 250.602 244.671 250.602 234.106 L 250.602 223.540 256.070 223.542 C 259.078 223.544,262.198 223.728,263.004 223.951 M280.259 232.437 L 280.259 241.335 284.708 241.335 L 289.157 241.335 289.157 243.003 L 289.157 244.671 282.854 244.671 L 276.552 244.671 276.552 234.106 L 276.552 223.540 278.406 223.540 L 280.259 223.540 280.259 232.437 M312.512 225.209 L 312.512 226.877 306.766 226.877 L 301.019 226.877 301.019 229.657 L 301.019 232.437 306.024 232.437 L 311.029 232.437 311.029 234.106 L 311.029 235.774 306.024 235.774 L 301.019 235.774 301.019 238.554 L 301.019 241.335 306.951 241.335 L 312.882 241.335 312.882 243.003 L 312.882 244.671 304.912 244.671 L 296.942 244.671 296.942 234.106 L 296.942 223.540 304.727 223.540 L 312.512 223.540 312.512 225.209 M254.385 229.529 L 254.495 232.252 257.962 232.246 C 261.292 232.239,261.464 232.198,262.318 231.205 C 264.539 228.623,263.014 227.104,258.033 226.934 L 254.276 226.806 254.385 229.529 M94.563 232.159 C 93.681 234.249,92.879 236.168,92.780 236.423 C 92.642 236.775,93.507 236.886,96.386 236.886 C 99.392 236.886,100.133 236.784,99.982 236.391 C 98.743 233.162,96.610 228.360,96.415 228.360 C 96.277 228.360,95.444 230.070,94.563 232.159 M254.588 235.610 C 254.435 235.768,254.310 237.121,254.310 238.616 L 254.310 241.335 257.850 241.335 C 262.769 241.335,264.431 240.343,263.790 237.791 C 263.359 236.070,255.859 234.293,254.588 235.610 "
      stroke="none"
      fill="#fbfbfb00"
      fill-rule="evenodd"
    ></path>
    <path
      id="path2"
      d="M214.415 141.983 C 214.415 144.532,214.475 145.575,214.547 144.300 C 214.619 143.026,214.619 140.941,214.547 139.666 C 214.475 138.392,214.415 139.435,214.415 141.983 M200.185 158.674 L 200.185 160.519 202.688 160.529 C 204.064 160.534,211.570 160.533,219.368 160.527 C 237.108 160.512,235.032 159.066,235.032 171.434 C 235.032 182.857,235.493 182.020,229.204 182.020 L 225.023 182.020 225.023 183.888 L 225.023 185.755 228.638 185.696 C 234.473 185.601,235.306 185.419,236.913 183.891 L 238.336 182.538 238.357 171.500 C 238.389 155.553,240.298 156.861,216.956 156.842 L 200.185 156.828 200.185 158.674 M210.795 171.569 C 210.693 171.733,210.602 179.365,210.593 188.529 C 210.573 208.994,212.074 206.523,199.741 206.397 C 188.563 206.282,189.435 206.783,189.435 200.485 L 189.435 196.108 187.546 196.108 L 185.656 196.108 185.785 201.205 C 186.001 209.808,186.027 209.824,200.112 209.824 C 215.507 209.824,214.271 211.692,214.272 188.415 L 214.272 171.270 212.626 171.270 C 211.721 171.270,210.897 171.404,210.795 171.569 M175.095 181.927 C 179.747 181.986,187.254 181.986,191.777 181.927 C 196.300 181.868,192.493 181.820,183.318 181.820 C 174.143 181.820,170.442 181.869,175.095 181.927 M250.766 234.106 C 250.766 240.019,250.817 242.386,250.880 239.366 C 250.942 236.346,250.942 231.508,250.879 228.615 C 250.817 225.722,250.766 228.193,250.766 234.106 M181.002 225.209 C 181.006 226.024,181.082 226.314,181.170 225.853 C 181.259 225.392,181.256 224.725,181.163 224.370 C 181.070 224.016,180.998 224.393,181.002 225.209 M237.049 234.291 C 237.049 240.102,237.101 242.479,237.163 239.574 C 237.226 236.668,237.226 231.914,237.163 229.008 C 237.101 226.103,237.049 228.480,237.049 234.291 M280.064 232.715 L 280.074 241.520 284.523 241.537 L 288.971 241.554 284.622 241.433 L 280.273 241.312 280.163 232.611 L 280.054 223.911 280.064 232.715 M169.543 229.657 C 169.545 231.288,169.610 231.909,169.688 231.037 C 169.766 230.166,169.765 228.831,169.686 228.072 C 169.606 227.313,169.542 228.026,169.543 229.657 M169.576 238.646 L 169.601 241.520 175.419 241.622 L 181.237 241.724 181.392 243.290 L 181.546 244.856 181.505 243.188 L 181.464 241.520 175.641 241.418 L 169.818 241.316 169.685 238.544 L 169.551 235.771 169.576 238.646 M228.075 238.740 C 228.075 239.453,228.151 239.745,228.244 239.388 C 228.338 239.032,228.338 238.448,228.244 238.091 C 228.151 237.734,228.075 238.026,228.075 238.740 M255.896 241.608 C 256.871 241.684,258.372 241.683,259.233 241.605 C 260.093 241.528,259.296 241.465,257.461 241.466 C 255.626 241.467,254.922 241.531,255.896 241.608 M303.910 241.611 C 305.602 241.680,308.271 241.679,309.842 241.610 C 311.412 241.540,310.028 241.484,306.766 241.485 C 303.503 241.485,302.218 241.542,303.910 241.611 "
      stroke="none"
      fill="#a2abab"
      fill-rule="evenodd"
    ></path>
    <path
      id="path3"
      d="M201.197 160.787 C 201.855 160.868,203.022 160.870,203.792 160.790 C 204.561 160.709,204.022 160.642,202.595 160.641 C 201.168 160.639,200.538 160.705,201.197 160.787 M209.195 160.796 C 211.398 160.861,214.901 160.861,216.980 160.795 C 219.059 160.729,217.257 160.676,212.975 160.676 C 208.693 160.676,206.992 160.730,209.195 160.796 M224.004 160.795 C 225.788 160.863,228.707 160.863,230.491 160.795 C 232.275 160.727,230.816 160.671,227.247 160.671 C 223.679 160.671,222.220 160.727,224.004 160.795 M238.289 169.694 C 238.231 174.537,238.282 179.333,238.403 180.352 C 238.524 181.372,238.649 177.410,238.681 171.548 C 238.713 165.686,238.662 160.890,238.567 160.890 C 238.472 160.890,238.347 164.852,238.289 169.694 M165.118 168.675 C 165.118 172.039,165.175 173.415,165.243 171.733 C 165.312 170.051,165.312 167.298,165.243 165.616 C 165.175 163.934,165.118 165.310,165.118 168.675 M214.443 187.952 C 214.443 197.229,214.491 201.024,214.550 196.386 C 214.609 191.747,214.609 184.157,214.550 179.518 C 214.491 174.880,214.443 178.675,214.443 187.952 M165.089 177.386 C 165.091 178.814,165.158 179.352,165.238 178.583 C 165.318 177.814,165.317 176.646,165.235 175.988 C 165.153 175.330,165.088 175.959,165.089 177.386 M224.803 182.163 C 224.694 182.446,224.670 183.405,224.750 184.295 C 224.893 185.904,224.894 185.903,224.958 183.978 L 225.023 182.044 229.379 181.927 L 233.735 181.809 229.367 181.729 C 225.932 181.667,224.958 181.759,224.803 182.163 M192.308 206.385 C 192.970 206.467,194.055 206.467,194.717 206.385 C 195.380 206.303,194.838 206.235,193.513 206.235 C 192.187 206.235,191.645 206.303,192.308 206.385 M198.054 206.391 C 199.226 206.464,201.145 206.464,202.317 206.391 C 203.489 206.317,202.530 206.257,200.185 206.257 C 197.841 206.257,196.881 206.317,198.054 206.391 M205.653 206.385 C 206.316 206.467,207.400 206.467,208.063 206.385 C 208.726 206.303,208.184 206.235,206.858 206.235 C 205.533 206.235,204.991 206.303,205.653 206.385 "
      stroke="none"
      fill="#bcbcbc"
      fill-rule="evenodd"
    ></path>
    <path
      id="path4"
      d="M185.528 154.402 C 185.528 163.781,185.576 167.565,185.635 162.811 C 185.693 158.056,185.693 150.382,185.634 145.758 C 185.576 141.133,185.528 145.023,185.528 154.402 M210.362 142.075 L 210.380 146.617 212.513 146.648 L 214.647 146.678 212.617 146.537 L 210.588 146.396 210.466 141.965 L 210.344 137.534 210.362 142.075 M189.605 154.588 C 189.605 163.865,189.654 167.660,189.712 163.021 C 189.771 158.383,189.771 150.792,189.712 146.154 C 189.654 141.515,189.605 145.310,189.605 154.588 M199.926 158.665 C 199.926 159.787,199.995 160.246,200.080 159.685 C 200.165 159.124,200.165 158.207,200.080 157.646 C 199.995 157.085,199.926 157.544,199.926 158.665 M161.052 171.270 C 161.052 176.673,161.103 178.883,161.167 176.182 C 161.230 173.480,161.230 169.059,161.167 166.358 C 161.103 163.656,161.052 165.867,161.052 171.270 M185.517 196.224 C 185.414 196.492,185.384 198.536,185.450 200.765 L 185.570 204.819 185.649 200.429 L 185.728 196.039 187.732 196.166 C 188.834 196.236,189.659 196.168,189.564 196.015 C 189.254 195.517,185.719 195.699,185.517 196.224 M189.573 200.741 C 189.574 202.984,189.635 203.854,189.709 202.674 C 189.783 201.494,189.782 199.659,189.707 198.596 C 189.633 197.533,189.572 198.499,189.573 200.741 M297.105 234.106 C 297.105 240.019,297.157 242.386,297.219 239.366 C 297.281 236.346,297.281 231.508,297.219 228.615 C 297.156 225.722,297.105 228.193,297.105 234.106 M312.247 225.209 C 312.250 226.228,312.322 226.601,312.407 226.038 C 312.492 225.474,312.490 224.640,312.402 224.184 C 312.314 223.728,312.244 224.189,312.247 225.209 M300.776 229.657 C 300.777 231.288,300.842 231.909,300.921 231.037 C 300.999 230.166,300.998 228.831,300.918 228.072 C 300.839 227.313,300.774 228.026,300.776 229.657 M113.174 234.106 C 113.176 235.125,113.248 235.498,113.334 234.935 C 113.419 234.371,113.417 233.537,113.329 233.081 C 113.241 232.625,113.171 233.086,113.174 234.106 M138.753 234.106 C 138.756 235.125,138.828 235.498,138.913 234.935 C 138.998 234.371,138.996 233.537,138.908 233.081 C 138.820 232.625,138.750 233.086,138.753 234.106 M179.902 234.106 C 179.905 235.125,179.977 235.498,180.062 234.935 C 180.147 234.371,180.145 233.537,180.057 233.081 C 179.969 232.625,179.899 233.086,179.902 234.106 M300.776 238.554 C 300.777 240.185,300.842 240.807,300.921 239.935 C 300.999 239.063,300.998 237.728,300.918 236.969 C 300.839 236.210,300.774 236.923,300.776 238.554 M312.618 243.003 C 312.620 244.022,312.692 244.395,312.778 243.832 C 312.863 243.268,312.861 242.434,312.773 241.978 C 312.685 241.522,312.615 241.983,312.618 243.003 M123.540 244.927 C 123.897 245.020,124.481 245.020,124.838 244.927 C 125.195 244.833,124.903 244.757,124.189 244.757 C 123.475 244.757,123.184 244.833,123.540 244.927 M149.120 244.927 C 149.476 245.020,150.060 245.020,150.417 244.927 C 150.774 244.833,150.482 244.757,149.768 244.757 C 149.055 244.757,148.763 244.833,149.120 244.927 "
      stroke="none"
      fill="#c8e4e4"
      fill-rule="evenodd"
    ></path>
  </g>
</svg>
