<svg
  viewBox="0 0 640 400"
  data-background-color="#046380"
  preserveAspectRatio="xMidYMid meet"
  height="400"
  width="640"
  xmlns="http://www.w3.org/2000/svg"
  xmlns:xlink="http://www.w3.org/1999/xlink"
>
  <rect
    width="640"
    height="400"
    x="0"
    y="0"
    opacity="1"
    fill="#046380"
    data-fill-palette-color="background"
    id="background"
  ></rect>
  <g id="tight-bounds" transform="matrix(1,0,0,1,122.24000000000001,76.4)">
    <svg viewBox="0 0 395.52 247.2" height="247.2" width="395.52">
      <g><svg></svg></g>
      <g>
        <svg viewBox="0 0 395.52 247.2" height="247.2" width="395.52">
          <g transform="matrix(1,0,0,1,75.54432,100.83776134091453)">
            <svg
              viewBox="0 0 244.43135999999998 45.52447731817094"
              height="45.52447731817094"
              width="244.43135999999998"
            >
              <g>
                <svg
                  viewBox="0 0 244.43135999999998 45.52447731817094"
                  height="45.52447731817094"
                  width="244.43135999999998"
                >
                  <g>
                    <svg
                      viewBox="0 0 308.40355987814473 57.439073556338165"
                      height="45.52447731817094"
                      width="244.43135999999998"
                    >
                      <g transform="matrix(1,0,0,1,0,14.865442818608505)">
                        <svg
                          viewBox="0 0 244.43135999999998 27.708187919121155"
                          height="27.708187919121155"
                          width="244.43135999999998"
                        >
                          <g>
                            <svg
                              viewBox="0 0 244.43135999999998 27.708187919121155"
                              height="27.708187919121155"
                              width="244.43135999999998"
                            >
                              <g>
                                <svg
                                  viewBox="0 0 244.43135999999998 27.708187919121155"
                                  height="27.708187919121155"
                                  width="244.43135999999998"
                                >
                                  <g transform="matrix(1,0,0,1,0,0)">
                                    <svg
                                      width="244.43135999999998"
                                      viewBox="0.10000000149011612 -35.29999923706055 314.0299987792969 35.599998474121094"
                                      height="27.708187919121155"
                                      data-palette-color="#ffffff"
                                    >
                                      <path
                                        d="M31.85 0L27.65-9.35 8.15-9.35 3.95 0 0.1 0 16.1-35 19.75-35 35.75 0 31.85 0ZM9.5-12.35L26.3-12.35 17.9-31.15 9.5-12.35ZM56.25 0.3Q51.05 0.3 46.87-2 42.7-4.3 40.32-8.38 37.95-12.45 37.95-17.5L37.95-17.5Q37.95-22.55 40.32-26.63 42.7-30.7 46.9-33 51.1-35.3 56.3-35.3L56.3-35.3Q60.2-35.3 63.5-34 66.8-32.7 69.1-30.2L69.1-30.2 66.75-27.85Q62.65-32 56.4-32L56.4-32Q52.25-32 48.85-30.1 45.45-28.2 43.52-24.9 41.6-21.6 41.6-17.5L41.6-17.5Q41.6-13.4 43.52-10.1 45.45-6.8 48.85-4.9 52.25-3 56.4-3L56.4-3Q62.7-3 66.75-7.2L66.75-7.2 69.1-4.85Q66.8-2.35 63.47-1.03 60.15 0.3 56.25 0.3L56.25 0.3ZM91.45 0.3Q86.25 0.3 82.07-2 77.9-4.3 75.52-8.38 73.15-12.45 73.15-17.5L73.15-17.5Q73.15-22.55 75.52-26.63 77.9-30.7 82.1-33 86.3-35.3 91.5-35.3L91.5-35.3Q95.4-35.3 98.7-34 102-32.7 104.3-30.2L104.3-30.2 101.95-27.85Q97.85-32 91.6-32L91.6-32Q87.45-32 84.05-30.1 80.65-28.2 78.72-24.9 76.8-21.6 76.8-17.5L76.8-17.5Q76.8-13.4 78.72-10.1 80.65-6.8 84.05-4.9 87.45-3 91.6-3L91.6-3Q97.9-3 101.95-7.2L101.95-7.2 104.3-4.85Q102-2.35 98.67-1.03 95.35 0.3 91.45 0.3L91.45 0.3ZM115.89-3.2L136.94-3.2 136.94 0 112.19 0 112.19-35 136.19-35 136.19-31.8 115.89-31.8 115.89-19.35 133.99-19.35 133.99-16.2 115.89-16.2 115.89-3.2ZM155.29 0.3Q151.39 0.3 147.82-0.95 144.24-2.2 142.29-4.25L142.29-4.25 143.74-7.1Q145.64-5.2 148.79-4.03 151.94-2.85 155.29-2.85L155.29-2.85Q159.99-2.85 162.34-4.58 164.69-6.3 164.69-9.05L164.69-9.05Q164.69-11.15 163.42-12.4 162.14-13.65 160.29-14.33 158.44-15 155.14-15.8L155.14-15.8Q151.19-16.8 148.84-17.73 146.49-18.65 144.82-20.55 143.14-22.45 143.14-25.7L143.14-25.7Q143.14-28.35 144.54-30.53 145.94-32.7 148.84-34 151.74-35.3 156.04-35.3L156.04-35.3Q159.04-35.3 161.92-34.48 164.79-33.65 166.89-32.2L166.89-32.2 165.64-29.25Q163.44-30.7 160.94-31.43 158.44-32.15 156.04-32.15L156.04-32.15Q151.44-32.15 149.12-30.38 146.79-28.6 146.79-25.8L146.79-25.8Q146.79-23.7 148.07-22.43 149.34-21.15 151.27-20.48 153.19-19.8 156.44-19L156.44-19Q160.29-18.05 162.67-17.13 165.04-16.2 166.69-14.33 168.34-12.45 168.34-9.25L168.34-9.25Q168.34-6.6 166.92-4.42 165.49-2.25 162.54-0.98 159.59 0.3 155.29 0.3L155.29 0.3ZM186.04 0.3Q182.14 0.3 178.56-0.95 174.99-2.2 173.04-4.25L173.04-4.25 174.49-7.1Q176.39-5.2 179.54-4.03 182.69-2.85 186.04-2.85L186.04-2.85Q190.74-2.85 193.09-4.58 195.44-6.3 195.44-9.05L195.44-9.05Q195.44-11.15 194.16-12.4 192.89-13.65 191.04-14.33 189.19-15 185.89-15.8L185.89-15.8Q181.94-16.8 179.59-17.73 177.24-18.65 175.56-20.55 173.89-22.45 173.89-25.7L173.89-25.7Q173.89-28.35 175.29-30.53 176.69-32.7 179.59-34 182.49-35.3 186.79-35.3L186.79-35.3Q189.79-35.3 192.66-34.48 195.54-33.65 197.64-32.2L197.64-32.2 196.39-29.25Q194.19-30.7 191.69-31.43 189.19-32.15 186.79-32.15L186.79-32.15Q182.19-32.15 179.86-30.38 177.54-28.6 177.54-25.8L177.54-25.8Q177.54-23.7 178.81-22.43 180.09-21.15 182.01-20.48 183.94-19.8 187.19-19L187.19-19Q191.04-18.05 193.41-17.13 195.79-16.2 197.44-14.33 199.09-12.45 199.09-9.25L199.09-9.25Q199.09-6.6 197.66-4.42 196.24-2.25 193.29-0.98 190.34 0.3 186.04 0.3L186.04 0.3ZM207.14 0L207.14-35 210.84-35 210.84 0 207.14 0ZM244.28-18.05Q247.73-17.3 249.61-15.08 251.48-12.85 251.48-9.35L251.48-9.35Q251.48-4.85 248.16-2.43 244.83 0 238.33 0L238.33 0 222.23 0 222.23-35 237.33-35Q243.18-35 246.41-32.65 249.63-30.3 249.63-26L249.63-26Q249.63-23.1 248.21-21.08 246.78-19.05 244.28-18.05L244.28-18.05ZM237.08-31.95L225.93-31.95 225.93-19.25 237.08-19.25Q241.33-19.25 243.63-20.88 245.93-22.5 245.93-25.6L245.93-25.6Q245.93-28.7 243.63-30.33 241.33-31.95 237.08-31.95L237.08-31.95ZM238.28-3.05Q242.98-3.05 245.38-4.65 247.78-6.25 247.78-9.65L247.78-9.65Q247.78-16.2 238.28-16.2L238.28-16.2 225.93-16.2 225.93-3.05 238.28-3.05ZM259.93 0L259.93-35 263.63-35 263.63-3.2 283.23-3.2 283.23 0 259.93 0ZM293.08-3.2L314.13-3.2 314.13 0 289.38 0 289.38-35 313.38-35 313.38-31.8 293.08-31.8 293.08-19.35 311.18-19.35 311.18-16.2 293.08-16.2 293.08-3.2Z"
                                        opacity="1"
                                        transform="matrix(1,0,0,1,0,0)"
                                        fill="#ffffff"
                                        class="undefined-text-0"
                                        data-fill-palette-color="primary"
                                        id="text-0"
                                      ></path>
                                    </svg>
                                  </g>
                                </svg>
                              </g>
                            </svg>
                          </g>
                        </svg>
                      </g>
                      <g transform="matrix(1,0,0,1,250.97259817119442,0)">
                        <svg
                          viewBox="0 0 57.430961706950285 57.439073556338165"
                          height="57.439073556338165"
                          width="57.430961706950285"
                        >
                          <g>
                            <svg
                              xmlns="http://www.w3.org/2000/svg"
                              xmlns:xlink="http://www.w3.org/1999/xlink"
                              version="1.1"
                              x="0"
                              y="0"
                              viewBox="3.924999237060547 3.9179935455322266 92.14999389648438 92.16300964355469"
                              enable-background="new 0 0 100 100"
                              xml:space="preserve"
                              height="57.439073556338165"
                              width="57.430961706950285"
                              class="icon-icon-0"
                              data-fill-palette-color="accent"
                              id="icon-0"
                            >
                              <g
                                fill="#ffffff"
                                data-fill-palette-color="accent"
                              >
                                <path
                                  d="M88.796 48.622l-8.2-8.201c5.33-5.828 5.178-14.908-0.462-20.549-2.811-2.809-6.543-4.355-10.518-4.355l0 0c-3.973 0-7.709 1.547-10.518 4.355L30.338 48.634l-8.2-8.199 28.761-28.763c4.999-4.999 11.646-7.753 18.718-7.753 0 0 0 0 0.002 0 7.068 0 13.715 2.753 18.717 7.753C98.497 21.834 98.643 38.267 88.796 48.622z"
                                  fill="#ffffff"
                                  data-fill-palette-color="accent"
                                ></path>
                                <g
                                  fill="#ffffff"
                                  data-fill-palette-color="accent"
                                >
                                  <path
                                    d="M49.113 88.327c-4.999 5-11.646 7.754-18.718 7.754s-13.719-2.754-18.718-7.754C1.516 78.167 1.366 61.735 11.216 51.378l8.2 8.201c-5.331 5.83-5.178 14.908 0.462 20.549 2.809 2.809 6.545 4.355 10.518 4.355s7.708-1.547 10.518-4.355l28.76-28.76 8.2 8.199L49.113 88.327z"
                                    fill="#ffffff"
                                    data-fill-palette-color="accent"
                                  ></path>
                                </g>
                                <path
                                  d="M88.335 88.327c-5.002 5-11.648 7.754-18.719 7.754-6.846 0-13.291-2.588-18.231-7.291l8.2-8.199c2.748 2.514 6.282 3.893 10.031 3.893 3.974 0 7.707-1.547 10.518-4.355 5.799-5.799 5.799-15.234 0-21.035l-28.761-28.76 8.2-8.201 28.762 28.76C98.655 61.214 98.655 78.007 88.335 88.327z"
                                  fill="#ffffff"
                                  data-fill-palette-color="accent"
                                ></path>
                                <g
                                  fill="#ffffff"
                                  data-fill-palette-color="accent"
                                >
                                  <path
                                    d="M40.427 19.41c-2.747-2.516-6.282-3.894-10.03-3.894 0 0 0 0-0.001 0-3.974 0-7.709 1.547-10.518 4.355-2.81 2.81-4.356 6.544-4.356 10.518 0 3.973 1.548 7.707 4.356 10.518l28.761 28.76-8.2 8.201-28.761-28.76c-4.999-5-7.753-11.648-7.753-18.719s2.753-13.718 7.753-18.718c4.998-4.999 11.646-7.753 18.717-7.753 0.001 0 0.002 0 0.002 0 6.845 0 13.289 2.589 18.23 7.29L40.427 19.41z"
                                    fill="#ffffff"
                                    data-fill-palette-color="accent"
                                  ></path>
                                </g>
                              </g>
                            </svg>
                          </g>
                        </svg>
                      </g>
                    </svg>
                  </g>
                </svg>
              </g>
            </svg>
          </g>
          <path
            d="M205.378 94.838L205.378 29.254 394.07 29.254 394.07 217.946 205.378 217.946 205.378 152.362 207.359 152.362 207.359 215.965 392.089 215.965 392.089 31.235 207.359 31.235 207.359 94.838Z"
            fill="#ffffff"
            stroke="transparent"
            data-fill-palette-color="primary"
          ></path>
        </svg>
      </g>
      <defs>
        <mask id="87972108-2ce2-4939-8b37-f3d7bc0f34a9">
          <rect width="640" height="400" fill="white"></rect>
          <rect
            width="232.0384"
            height="35.202299254809105"
            fill="black"
            x="203.9808"
            y="182.39885037259546"
            id="transform-me"
            transform="matrix(1,0,0,1,-122.24000000000001,-125.8183659816717)"
          ></rect>
        </mask>
      </defs>
    </svg>
    <rect
      width="395.52"
      height="247.2"
      fill="none"
      stroke="none"
      visibility="hidden"
    ></rect>
  </g>
</svg>
